# xmcd CD database file
#
# Track frame offsets:
#	182
#	23620
#	36302
#	53675
#	70567
#	87872
#	108922
#	118722
#	140380
#	155550
#	169667
#	187240
#	200532
#
# Disc length: 2914 seconds
#
# Revision: 4
# Processed by: cddbd v1.4PL0 Copyright (c) Steve Scherf et al.
# Submitted via: CDex 1.40PlusFr
#
DISCID=ab0b600d
DTITLE=Félix la putarâgne - Félix la putarâgne
DYEAR=1994
DGENRE=Other
TTITLE0=Meet me in the morning
TTITLE1=Mr Bebert
TTITLE2=Emine
TTITLE3=Ca n'a pas d'importance
TTITLE4=Assez
TTITLE5=I Shot the Sheriff
TTITLE6=Guns of Brixton
TTITLE7=La complainte de Mr Mc Kee
TTITLE8=Kiss
TTITLE9=Exactly Like You
TTITLE10=Vent d'est
TTITLE11=Poinçonneur des lilas
TTITLE12=Adelita
EXTD=YEAR: 1994 ID3G: 12
EXTT0=
EXTT1=
EXTT2=
EXTT3=
EXTT4=
EXTT5=
EXTT6=
EXTT7=
EXTT8=
EXTT9=
EXTT10=
EXTT11=
EXTT12=
PLAYORDER=
